<svg xmlns="http://www.w3.org/2000/svg" viewBox="0 0 32.5 40" width="33" height="40"><path d="M32.4 38.6l-2-30.3c0-.7-.6-1.2-1.3-1.2h-5.6v-.8c0-3.5-2.8-6.3-6.3-6.3H15c-3.5 0-6.3 2.8-6.3 6.3v.8H3.3c-.7 0-1.3.5-1.3 1.2L0 38.7c0 .5.3 1 .8 1.3h30.4c.7 0 1.3-.6 1.3-1.3 0 0 0-.1-.1-.1zM15.1 2.5h2.2c2.1 0 3.8 1.7 3.8 3.8v.8h-9.8v-.8c0-2.1 1.7-3.8 3.8-3.8zm-12.5 35L4.5 9.7h4.3v1.1c-1 .5-1.6 1.5-1.5 2.7.1 1.3 1.2 2.4 2.5 2.5 1.6.1 2.9-1.2 2.9-2.8 0-1.1-.6-2-1.5-2.5v-1H21v1.1c-.9.5-1.6 1.4-1.6 2.5 0 1.5 1.2 2.8 2.8 2.8s2.8-1.2 2.8-2.8c0-1.1-.6-2-1.5-2.5V9.7H28l1.8 27.8H2.6z"/></svg>
