<svg xmlns="http://www.w3.org/2000/svg" width="47" height="40"><path d="M36.974 3.475c8.305 10.847 8.305 21.864 0 33.05h1.699c7.491-10.906 7.762-21.918 0-33.05zm-6.472 4.074c6.964 8.173 6.964 16.473 0 24.902h1.425c6.28-8.217 6.508-16.515 0-24.902zM24.4 37.337c0 .4-.2.7-.5.9-.1.1-.5.2-.9 0l-11.7-10.8v-4c0-.5-.4-.9-.9-.9s-.8.5-.8 1v3.5H1.8v-14.8h7.8v3.5c0 .5.4.9.9.9s.9-.4.9-.9v-3.9l11.6-10c.4-.2.7-.1.9 0 .3.2.5.5.5.9v34.6zm.3-37c-.8-.5-1.9-.5-2.7 0l-.1.1-11.8 10H.9c-.5 0-.9.4-.9.9v16.5c0 .2.1.5.3.6.2.1.4.3.6.3h9.2l11.8 10.8.1.1c.4.3.9.4 1.4.4.4 0 .9-.1 1.3-.3.9-.5 1.4-1.4 1.4-2.4v-34.6c0-1-.5-1.9-1.4-2.4z"/></svg>