<svg xmlns="http://www.w3.org/2000/svg" viewBox="0 0 47 40" width="47" height="40"><path d="M40.4 19.1l6.3-6.3c.3-.3.3-.9 0-1.2s-.9-.3-1.2 0l-6.3 6.3-6.3-6.3c-.3-.3-.9-.3-1.2 0-.3.3-.3.9 0 1.2l6.3 6.3-6.3 6.3c-.3.3-.3.9 0 1.2.2.2.4.3.6.3.2 0 .4-.1.6-.3l6.3-6.3 6.3 6.3c.2.2.4.3.6.3.2 0 .4-.1.6-.3.3-.3.3-.9 0-1.2l-6.3-6.3zM24.7.3c-.8-.5-1.9-.5-2.7 0l-.1.1-11.8 10H.9c-.5 0-.9.4-.9.9v16.5c0 .2.1.5.3.6s.4.3.6.3h9.2l11.8 10.8.1.1c.4.3.9.4 1.4.4.4 0 .9-.1 1.3-.3.9-.5 1.4-1.4 1.4-2.4V2.7c0-1-.5-1.9-1.4-2.4zm-.3 37c0 .4-.2.7-.5.9-.1.1-.5.2-.9 0L11.3 27.4v-4c0-.5-.4-.9-.9-.9s-.8.5-.8 1V27H1.8V12.2h7.8v3.5c0 .5.4.9.9.9s.9-.4.9-.9v-3.9L23 1.8c.4-.2.7-.1.9 0 .3.2.5.5.5.9v34.6z"/></svg>
