<?xml version="1.0" encoding="utf-8"?><svg xmlns="http://www.w3.org/2000/svg" xmlns:xlink="http://www.w3.org/1999/xlink"><symbol viewBox="0 0 30.5 40" id="account" xmlns="http://www.w3.org/2000/svg"><path d="M23 20.8h-1.6c3.2-2.1 5.3-5.7 5.2-9.7C26.4 4.9 21.3-.1 15.1 0 8.9.1 3.9 5.1 3.9 11.3c0 4 2.1 7.5 5.2 9.5H7.5c-4.1 0-7.5 3.4-7.5 7.5v10.5c0 .6.6 1.2 1.2 1.2h28c.7 0 1.2-.6 1.2-1.2V28.3c.1-4.2-3.3-7.5-7.4-7.5zM6.4 11.3c0-4.9 3.9-8.8 8.8-8.8S24 6.4 24 11.3c0 4.8-3.9 8.8-8.8 8.8-4.8 0-8.8-4-8.8-8.8zM18.9 22l-3.7 3.7-3.6-3.7c1.1.4 2.4.6 3.7.6s2.5-.3 3.6-.6zM28 37.5h-3.4v-6c0-.6-.4-1.2-1-1.3-.8-.1-1.5.5-1.5 1.2v6H8.4v-6c0-.6-.4-1.2-1-1.3-.8-.1-1.5.5-1.5 1.2v6H2.5v-9.2c0-2.8 2.2-5 5-5h1.8l5 5c.2.2.6.4.9.4.3 0 .6-.1.9-.4l5-5H23c2.8 0 5 2.2 5 5v9.4z"/></symbol><symbol viewBox="0 0 32.5 40" id="bag" xmlns="http://www.w3.org/2000/svg"><path d="M32.4 38.6l-2-30.3c0-.7-.6-1.2-1.3-1.2h-5.6v-.8c0-3.5-2.8-6.3-6.3-6.3H15c-3.5 0-6.3 2.8-6.3 6.3v.8H3.3c-.7 0-1.3.5-1.3 1.2L0 38.7c0 .5.3 1 .8 1.3h30.4c.7 0 1.3-.6 1.3-1.3 0 0 0-.1-.1-.1zM15.1 2.5h2.2c2.1 0 3.8 1.7 3.8 3.8v.8h-9.8v-.8c0-2.1 1.7-3.8 3.8-3.8zm-12.5 35L4.5 9.7h4.3v1.1c-1 .5-1.6 1.5-1.5 2.7.1 1.3 1.2 2.4 2.5 2.5 1.6.1 2.9-1.2 2.9-2.8 0-1.1-.6-2-1.5-2.5v-1H21v1.1c-.9.5-1.6 1.4-1.6 2.5 0 1.5 1.2 2.8 2.8 2.8s2.8-1.2 2.8-2.8c0-1.1-.6-2-1.5-2.5V9.7H28l1.8 27.8H2.6z"/></symbol><symbol viewBox="0 0 40 40" id="cancel" xmlns="http://www.w3.org/2000/svg"><path d="M18.1 20L.4 37.8c-.5.5-.5 1.3 0 1.8.2.3.5.4.9.4.3 0 .6-.1.9-.4l17.8-18 17.8 18c.2.2.6.4.9.4.3 0 .6-.1.9-.4.5-.5.5-1.3 0-1.8L21.9 20 39.6 2.2c.5-.5.5-1.3 0-1.8s-1.3-.5-1.8 0L20 18.3 2.1.4C1.6-.1.8-.1.3.4s-.5 1.3 0 1.8L18.1 20z"/></symbol><symbol viewBox="0 0 37.1 40" id="cart" xmlns="http://www.w3.org/2000/svg"><path d="M10.6 26.4h22c2.5 0 4.5-2 4.5-4.5v-9.3-.1-.1c0-.1 0 0 0 0v-.1-.1H37h-.1L8.3 7.6V3.7v-.1-.1-.1-.1-.1h-.1-.1H8L2 .7C1-.2.3.1.1.7s0 1.2.6 1.5L6 4.4V28.7c0 2.3 1.7 4.2 3.9 4.5-.4.7-.6 1.5-.6 2.3 0 2.4 2 4.4 4.4 4.5 2.4.1 4.4-1.8 4.6-4.2.1-.9-.2-1.8-.6-2.6h9.9c-.4.7-.6 1.4-.6 2.3 0 2.6 2.2 4.7 4.8 4.5 2.2-.2 3.9-1.9 4.1-4.1.2-2.6-1.9-4.9-4.4-4.9H10.6c-1.3 0-2.3-1-2.3-2.3v-3c.6.4 1.4.7 2.3.7zm5.5 9.1c0 1.2-1 2.3-2.3 2.3s-2.3-1-2.3-2.3c0-1.2 1-2.3 2.3-2.3s2.3 1.1 2.3 2.3zm17.7 0c0 1.2-1 2.3-2.3 2.3-1.2 0-2.3-1-2.3-2.3 0-1.2 1-2.3 2.3-2.3 1.3.1 2.3 1.1 2.3 2.3zm-1.2-11.4h-22c-1.3 0-2.3-1-2.3-2.3v-12L35 13.5v8.3c0 1.3-1.1 2.3-2.4 2.3z"/></symbol><symbol viewBox="0 0 8 11" id="down" xmlns="http://www.w3.org/2000/svg"><path d="M7.9 7.4c.1 0 .1-.4 0-.6s-.4-.2-.6 0l-2.9 3V.4C4.4.2 4.2 0 4 0s-.4.2-.4.4v9.4l-3-3c-.2-.2-.4-.2-.6 0 0 .2 0 .6.2.6l3.6 3.5c.2.1.4.1.6 0l3.5-3.5z"/></symbol><symbol viewBox="0 0 40 40" id="facebook" xmlns="http://www.w3.org/2000/svg"><path d="M32.5 0h-25C3.4 0 0 3.4 0 7.5v25C0 36.6 3.4 40 7.5 40h25c4.1 0 7.5-3.4 7.5-7.5v-25C40 3.4 36.6 0 32.5 0zm-7.3 20h-3.3v12h-4.5V20h-3v-4.1h3v-2.4c0-3.4.9-5.5 4.8-5.5h3.4v4.1h-2.1c-1.6 0-1.6.6-1.6 1.6v2.1h3.7l-.4 4.2z"/></symbol><symbol viewBox="0 0 23 18.1" id="filter" xmlns="http://www.w3.org/2000/svg"><path d="M.5 2.8h8.4c.2 1 1.2 1.8 2.2 1.8 1.1 0 2-.8 2.2-1.8h9.2c.3 0 .5-.2.5-.5s-.2-.5-.5-.5h-9.1C13.2.8 12.2 0 11.2 0 10.1 0 9.2.8 9 1.8H.5c-.3 0-.5.2-.5.5s.2.5.5.5zM11.1 1c.7 0 1.3.6 1.3 1.3 0 .7-.6 1.3-1.3 1.3-.7 0-1.3-.6-1.3-1.3 0-.7.6-1.3 1.3-1.3zM.5 9.6h3.7c.2 1 1.2 1.8 2.2 1.8 1.1 0 2-.8 2.2-1.8h13.9c.3 0 .5-.2.5-.5s-.2-.5-.5-.5H8.6c-.2-1-1.2-1.8-2.2-1.8-1.1 0-2 .8-2.2 1.8H.5c-.3 0-.5.2-.5.5s.2.5.5.5zm5.9-1.8c.7 0 1.3.6 1.3 1.3 0 .7-.6 1.3-1.3 1.3-.7 0-1.3-.6-1.3-1.3 0-.7.6-1.3 1.3-1.3zM.5 16.3h13.2c.2 1 1.2 1.8 2.2 1.8 1.1 0 2-.8 2.2-1.8h4.3c.3 0 .5-.2.5-.5s-.2-.5-.5-.5h-4.3c-.2-1-1.2-1.8-2.2-1.8-1.1 0-2 .8-2.2 1.8H.5c-.3 0-.5.2-.5.5s.2.5.5.5zm15.4-1.8c.7 0 1.3.6 1.3 1.3 0 .7-.6 1.3-1.3 1.3-.7 0-1.3-.6-1.3-1.3 0-.7.6-1.3 1.3-1.3z"/></symbol><symbol viewBox="0 0 40 40" id="instagram" xmlns="http://www.w3.org/2000/svg"><path d="M38.2 0H1.8C.8 0 0 .8 0 1.8v36.4c0 1 .8 1.8 1.8 1.8h36.4c1 0 1.8-.8 1.8-1.8V1.8c0-1-.8-1.8-1.8-1.8zM20 13c3.9 0 7 3.1 7 7s-3.1 7-7 7-7-3.1-7-7 3.2-7 7-7zm15.1 22H5V17.4h3.3c-.2.9-.3 1.7-.3 2.6 0 6.6 5.4 12 12 12s12-5.4 12-12c0-.9-.1-1.7-.3-2.5H35l.1 17.5zM35 12.5h-7.5V5H35v7.5z"/></symbol><symbol viewBox="0 0 28.2 40" id="invoice" xmlns="http://www.w3.org/2000/svg"><path d="M25.8 0H2.4C1.1 0 0 1.1 0 2.4v35.2C0 38.9 1.1 40 2.4 40h19.1c.2 0 .4-.1.6-.2L28 34c.2-.2.2-.4.2-.6v-31c0-1.3-1-2.4-2.4-2.4zm-3.5 37.1v-2.2c0-.4.3-.7.7-.7h2.2l-2.9 2.9zM2.4 1.7h23.4c.4 0 .7.3.7.7V5H1.7V2.4c0-.4.3-.7.7-.7zm-.7 35.9V6.7h24.9v25.8h-3.4c-1.3 0-2.4 1.1-2.4 2.4v3.4H2.4c-.4 0-.7-.3-.7-.7zm3.4-24.7h11c.4 0 .8-.3.9-.7.1-.5-.3-1-.8-1h-11c-.4 0-.8.3-.9.7-.1.5.3 1 .8 1zm14.4 0h2.8c.4 0 .8-.3.9-.7.1-.5-.3-1-.8-1h-2.8c-.4 0-.8.3-.9.7-.1.5.3 1 .8 1zM5.1 19.6h11c.4 0 .8-.3.9-.7.1-.5-.3-1-.8-1h-11c-.4 0-.8.3-.9.7-.1.5.3 1 .8 1zm14.4 0h2.8c.4 0 .8-.3.9-.7.1-.5-.3-1-.8-1h-2.8c-.4 0-.8.3-.9.7-.1.5.3 1 .8 1zm-3.4 5h-11c-.4 0-.8.3-.9.7-.1.5.3 1 .8 1h11c.5 0 .9-.5.8-1 .1-.4-.3-.7-.7-.7zm3.4 1.6h2.8c.4 0 .8-.3.9-.7.1-.5-.3-1-.8-1h-2.8c-.4 0-.8.3-.9.7-.1.6.3 1 .8 1zm2.8 4.8c.5 0 .9-.5.8-1-.1-.4-.4-.7-.9-.7h-8c-.4 0-.8.3-.9.7-.1.5.3 1 .8 1h8.2z"/></symbol><symbol viewBox="0 0 29 40" id="location" xmlns="http://www.w3.org/2000/svg"><path d="M14.5 0C6.5 0 0 6.5 0 14.5 0 24.4 13 39 13.5 39.6c.5.6 1.4.6 1.9 0C16 39 29 24.4 29 14.5 29 6.5 22.5 0 14.5 0zm0 21.8c-4 0-7.3-3.3-7.3-7.3s3.3-7.3 7.3-7.3 7.3 3.3 7.3 7.3-3.3 7.3-7.3 7.3z"/></symbol><symbol viewBox="0 0 558.2 57" id="logo" xmlns="http://www.w3.org/2000/svg"><path d="M154.5 56.1h31.1V13.2l-31.1 42.9zm-6-10v10h2V14H126l22.5 32.1zm-27 9.9V14h-2v42.1h2V56zm-27.1-1.5V14h-2v42.1h23v-2h-21v.4zm-9-40.5h-33v25.4c0 8.7 6.2 16 14.6 16.9 9.9 1.1 18.5-7.1 18.5-17.1L85.4 14zM45.3 0H0l43.3 43.5v12.6h2V0zm183.4 54.1V0h-2v56.1h28v-2h-26zm30 2h31.1V13.2l-31.1 42.9zm69.1-.1V14h-1v40l-30.1-41v43.1h31.1V56zm7.1-42v42.1h5.8c11.5 0 21-9.2 21-21 0-11.4-9.4-21.1-21-21.1h-5.8zm51 32.1v10h2V14h-24.7l22.7 32.1zM428 19.7c-3.9-3.9-9-5.8-14.1-5.8-10.9 0-20 9.1-20 20 0 5.2 1.8 10.3 5.9 14.1l-2.4 2.3c3.9 3.9 9 5.9 14.1 5.9 10.7 0 20-9.1 20-20 0-5.2-1.8-10.3-5.9-14.2l2.4-2.3zm36.1-5.7v20h-25V14h-1v42.1h1v-21h25v21h1V14h-1zm23.2 21.1h11.8v-2h-10l13.7-19H473v42.1h30.1v-1h-30.7l14.9-20.1zM539.2 14h-31.1v43l31.1-43zm-12 42.1h31.1V13.2l-31.1 42.9z"/></symbol><symbol viewBox="0 0 37.1 40" id="logout" xmlns="http://www.w3.org/2000/svg"><path d="M17.9 37.7H7.4c-2.8 0-5.1-2.3-5.1-5.1V7.4c0-2.8 2.3-5.1 5.1-5.1H18c.6 0 1.2-.5 1.2-1.1C19.2.5 18.7 0 18 0H7.4C3.3 0 0 3.3 0 7.4v25.1C0 36.7 3.3 40 7.4 40h10.4c.6 0 1.1-.4 1.2-1 .1-.7-.5-1.3-1.1-1.3z"/><path d="M36.8 19.2l-7.3-7.3c-.5-.5-1.2-.5-1.6 0-.5.5-.5 1.2 0 1.6l5.3 5.3H9.9c-.6 0-1.1.5-1.1 1.1S9.3 21 9.9 21h23.3l-5.3 5.3c-.5.5-.5 1.2 0 1.6.2.2.5.3.8.3.3 0 .6-.1.8-.3l7.3-7.3c.4-.2.4-1 0-1.4z"/></symbol><symbol viewBox="0 0 40 20" id="menu" xmlns="http://www.w3.org/2000/svg"><path d="M1.3 2.5h37.5c.7 0 1.3-.6 1.3-1.3S39.4 0 38.8 0H1.3C.6 0 0 .6 0 1.3s.6 1.2 1.3 1.2zm37.5 6.3H1.3C.6 8.8 0 9.3 0 10s.6 1.3 1.3 1.3h37.5c.7 0 1.3-.6 1.3-1.3s-.7-1.2-1.3-1.2zm0 8.7h-25c-.7 0-1.3.6-1.3 1.3s.6 1.3 1.3 1.3h25c.7 0 1.3-.6 1.3-1.3s-.7-1.3-1.3-1.3z"/></symbol><symbol viewBox="0 0 11.4 8" id="next" xmlns="http://www.w3.org/2000/svg"><path d="M7.6.1c-.2-.1-.4-.2-.6 0-.2.2-.2.4 0 .6l3 2.8H.4c-.2.1-.4.3-.4.5s.2.4.4.4h9.7l-3 3c-.3.2-.3.4-.1.6.3.1.3.1.6-.2l3.6-3.6c.2-.2.2-.4 0-.6L7.6.1z"/></symbol><symbol viewBox="0 0 40 40" id="search" xmlns="http://www.w3.org/2000/svg"><path d="M35.6 4.4C32.8 1.6 29 0 25 0s-7.8 1.6-10.6 4.4C11.5 7.2 9.9 11 9.9 15c0 2.7.7 5.4 2.1 7.7l-10.9 11c-.7.6-1.1 1.6-1.1 2.5 0 1 .4 1.9 1.1 2.6l.1.1c.7.7 1.6 1.1 2.6 1.1s1.9-.4 2.6-1.1L17.3 28c2.3 1.4 4.9 2.1 7.7 2.1 4 0 7.8-1.6 10.6-4.4S40 19.1 40 15s-1.6-7.8-4.4-10.6zM4.5 37.1c-.2.2-.5.3-.7.3-.3 0-.5-.1-.7-.3l-.2-.1c-.2-.2-.3-.5-.3-.7 0-.3.1-.5.3-.7L13.5 25c.2.3.5.6.8.8l.8.8L4.5 37.1zm29.3-13.3c-2.4 2.4-5.5 3.6-8.8 3.6-3.3 0-6.4-1.3-8.8-3.6-2.4-2.4-3.6-5.5-3.6-8.8 0-3.3 1.3-6.4 3.6-8.8s5.5-3.6 8.8-3.6c3.3 0 6.4 1.3 8.8 3.6s3.6 5.5 3.6 8.8c0 3.4-1.3 6.5-3.6 8.8z"/></symbol><symbol viewBox="0 0 32 40" id="user" xmlns="http://www.w3.org/2000/svg"><path d="M16 21.3c5.9 0 8-5.9 8.6-10.8C25.3 4.5 22.5 0 16 0 9.6 0 6.7 4.5 7.4 10.5c.6 4.9 2.7 10.8 8.6 10.8z"/><path d="M32 35.4c-.1-1.9-.3-3.8-.6-5.6-.4-2.3-.9-5.6-2.9-7-1.1-.8-2.6-1.1-3.9-1.6-.6-.2-1.2-.5-1.7-.8-1.8 2-4.1 3-6.9 3-2.7 0-5.1-1-6.9-3-.5.3-1.1.5-1.7.8-1.3.5-2.8.8-3.9 1.6-2 1.5-2.5 4.8-2.9 7-.3 1.9-.6 3.8-.6 5.6-.1 1.5.7 1.7 1.9 2.1 1.5.6 3.1 1 4.7 1.3 3.1.7 6.3 1.2 9.4 1.2 3.2 0 6.3-.5 9.4-1.2 1.6-.3 3.2-.7 4.7-1.3 1.3-.4 2-.6 1.9-2.1z"/></symbol><symbol viewBox="0 0 40 40" id="youtube" xmlns="http://www.w3.org/2000/svg"><path d="M40 4.1C40 1.8 38.2 0 35.9 0H4.1C1.8 0 0 1.8 0 4.1v31.8C0 38.2 1.8 40 4.1 40h31.8c2.3 0 4.1-1.8 4.1-4.1V4.1zM23 6.7h2v6.1c0 1.2 0 1.1.1 1.3 0 .2.2.5.6.5.5 0 .6-.4.7-.6 0-.1.1-.1.1-1.3v-6h2v9.2h-2v-.5l-.6-.2c-.2.3-.3.5-.5.7-.2.2-.5.2-.8.2-.3 0-.6-.1-.8-.2-.2-.1-.3-.3-.4-.5-.1-.2-.2-.5-.2-.8V6.7H23zm-6.7 3.9c0-1 .1-1.7.2-2.2.1-.5.4-.9.8-1.2.4-.3.9-.5 1.5-.5.5 0 1 .1 1.4.3.4.2.6.4.8.7.2.3.3.6.4 1 .1.3.1.9.1 1.6V12c0 .9 0 1.6-.1 2.1-.1.4-.2.8-.4 1.1-.2.3-.5.6-.8.7-.4.2-.8.3-1.2.3-.5 0-1-.1-1.4-.2-.3-.1-.6-.3-.8-.6-.2-.3-.3-.6-.4-1-.1-.4-.1-1.1-.1-2v-1.8zm-4.6-7.2l1.6 5.1c.3-1.3.8-3.2 1.2-5.1h1.4l-1.8 7.3V16h-1.7v-5.3l-2.1-7.3h1.4zm23 28.6c-.3 2.3-2.3 4.2-4.6 4.3-6.7.3-13.4.3-20.1 0-2.3-.2-4.3-2-4.6-4.3-.2-3.6-.2-7.2 0-10.8.3-2.3 2.3-4.2 4.6-4.3 6.7-.3 13.4-.3 20.1 0 2.3.2 4.3 2 4.6 4.3.2 3.6.2 7.1 0 10.8zM19 15.1c.3 0 .5-.2.6-.5 0-.1.1-.4.1-1.1v-4c0-.8 0-1.1-.1-1.2-.1-.3-.3-.5-.6-.5s-.5.2-.6.5c-.1.1-.1.4-.1 1.3v4c0 .8.1 1 .1 1.2 0 .2.3.3.6.3zM8 21.8H9.9V32.5h2V21.9H13.8v-2H8v1.9zm9.4 7.1c0 1.1 0 1.4-.1 1.6-.1.3-.3.5-.6.5s-.5-.2-.6-.5c0-.1-.1-.4-.1-1.5v-6.1h-1.9V31.2c0 .3.1.5.2.8.1.2.2.4.4.5.2.1.5.2.8.2.3 0 .5-.1.7-.2.2-.1.4-.4.5-.7l.6.1v.5h1.9v-9.7h-1.9l.1 6.2zm8.4-5.5c-.1-.2-.3-.4-.5-.5-.2-.1-.5-.2-.7-.2-.2 0-.5.1-.7.2-.2.1-.4.3-.6.6l-.6.9v-4.6h-1.9v12.7h1.8l.1-.6.2-.8.4.7c.2.3.4.5.6.7.2.1.4.2.7.2.3 0 .6-.1.9-.3.3-.2.4-.5.5-.9.1-.4.1-1 .1-.9v-5.1s.1-.5 0-1.5c-.2-.2-.2-.4-.3-.6zM24.1 29c0 .9 0 1.1-.1 1.3-.1.3-.3.5-.6.5s-.5-.2-.6-.5c0-.1-.1-.4-.1-1.2v-2.5c0-.8 0-1.1.1-1.2.1-.3.3-.4.6-.4s.5.2.6.5c0 .1.1.4.1 1.2V29zm5.2-.9h3.3v-1c0-1-.1-2-.3-2.5-.2-.5-.4-.9-.9-1.2-.4-.3-.9-.4-1.5-.4-.5 0-1 .1-1.4.4s-.7.6-.8 1c-.2.5-.3 1.1-.3 2.3v2.9c0 .4 0 .9.1 1.3s.2.7.4 1c.2.3.5.5.8.7.4.2.8.3 1.3.3s.9-.1 1.2-.2c.3-.2.6-.4.8-.8.2-.3.4-.7.4-1 .1-.3.1-.8.1-1.4V29h-1.8v1c0 .6 0 .9-.1 1.1-.1.3-.4.5-.7.5-.3 0-.5-.1-.6-.4-.1-.1-.1-.3-.1-1v-1.9l.1-.2zm0-1.4v-1.1c0-.8 0-.7.1-.8.1-.3.3-.4.6-.4s.5.2.6.4c0 .1.1 0 .1.8V27h-1.4v-.3z"/></symbol></svg>